<mxfile host="app.diagrams.net" modified="2021-06-04T01:48:49.670Z" agent="5.0 (Windows NT 10.0; Win64; x64) AppleWebKit/537.36 (KHTML, like Gecko) Chrome/90.0.4430.212 Safari/537.36" etag="RvKP_gzho0JioyKxHNtJ" version="14.6.13" type="github">
  <diagram id="YDbvJKthgHDpLr_gpcF4" name="第 1 页">
    <mxGraphModel dx="1422" dy="762" grid="1" gridSize="10" guides="1" tooltips="1" connect="1" arrows="1" fold="1" page="1" pageScale="1" pageWidth="827" pageHeight="1169" math="0" shadow="0">
      <root>
        <mxCell id="0" />
        <mxCell id="1" parent="0" />
        <mxCell id="sla7RFZH6J3o2zBhODtt-1" value="模式一" style="text;html=1;strokeColor=none;fillColor=none;align=center;verticalAlign=middle;whiteSpace=wrap;rounded=0;" vertex="1" parent="1">
          <mxGeometry x="150" y="60" width="40" height="20" as="geometry" />
        </mxCell>
        <mxCell id="sla7RFZH6J3o2zBhODtt-2" value="" style="rounded=1;whiteSpace=wrap;html=1;" vertex="1" parent="1">
          <mxGeometry x="80" y="130" width="120" height="60" as="geometry" />
        </mxCell>
      </root>
    </mxGraphModel>
  </diagram>
</mxfile>
